<?xml version="1.0" encoding="UTF-8" standalone="no"?>
<!-- Generator: Adobe Illustrator 16.0.0, SVG Export Plug-In . SVG Version: 6.00 Build 0)  -->

<svg
   xmlns:dc="http://purl.org/dc/elements/1.1/"
   xmlns:cc="http://creativecommons.org/ns#"
   xmlns:rdf="http://www.w3.org/1999/02/22-rdf-syntax-ns#"
   xmlns:svg="http://www.w3.org/2000/svg"
   xmlns="http://www.w3.org/2000/svg"
   xmlns:sodipodi="http://sodipodi.sourceforge.net/DTD/sodipodi-0.dtd"
   xmlns:inkscape="http://www.inkscape.org/namespaces/inkscape"
   version="1.1"
   id="US_UK_Download_on_the"
   x="0px"
   y="0px"
   width="135px"
   height="40px"
   viewBox="0 0 135 40"
   enable-background="new 0 0 135 40"
   xml:space="preserve"
   inkscape:version="0.91 r13725"
   sodipodi:docname="apple-download.svg"><metadata
     id="metadata69"><rdf:RDF><cc:Work
         rdf:about=""><dc:format>image/svg+xml</dc:format><dc:type
           rdf:resource="http://purl.org/dc/dcmitype/StillImage" /><dc:title></dc:title></cc:Work></rdf:RDF></metadata><defs
     id="defs67" /><sodipodi:namedview
     pagecolor="#b49eb0"
     bordercolor="#666666"
     borderopacity="1"
     objecttolerance="10"
     gridtolerance="10"
     guidetolerance="10"
     inkscape:pageopacity="0"
     inkscape:pageshadow="2"
     inkscape:window-width="1440"
     inkscape:window-height="856"
     id="namedview65"
     showgrid="false"
     inkscape:zoom="4.0592593"
     inkscape:cx="116.88299"
     inkscape:cy="-2.3820919"
     inkscape:window-x="350"
     inkscape:window-y="126"
     inkscape:window-maximized="0"
     inkscape:current-layer="g3" /><g
     id="g3"
     style="stroke:none"><g
       id="g9"
       style="stroke:none"><g
         id="g11"
         style="stroke:none"><path
           fill="#FFFFFF"
           d="M30.128,19.784c-0.029-3.223,2.639-4.791,2.761-4.864c-1.511-2.203-3.853-2.504-4.676-2.528     c-1.967-0.207-3.875,1.177-4.877,1.177c-1.022,0-2.565-1.157-4.228-1.123c-2.14,0.033-4.142,1.272-5.24,3.196     c-2.266,3.923-0.576,9.688,1.595,12.859c1.086,1.553,2.355,3.287,4.016,3.226c1.625-0.067,2.232-1.036,4.193-1.036     c1.943,0,2.513,1.036,4.207,0.997c1.744-0.028,2.842-1.56,3.89-3.127c1.255-1.78,1.759-3.533,1.779-3.623     C33.507,24.924,30.161,23.647,30.128,19.784z"
           id="path13"
           style="stroke:none" /><path
           fill="#FFFFFF"
           d="M26.928,10.306c0.874-1.093,1.472-2.58,1.306-4.089c-1.265,0.056-2.847,0.875-3.758,1.944     c-0.806,0.942-1.526,2.486-1.34,3.938C24.557,12.205,26.016,11.382,26.928,10.306z"
           id="path15"
           style="stroke:none" /></g></g><text
       xml:space="preserve"
       style="font-style:normal;font-weight:normal;font-size:10.507864px;line-height:125%;font-family:sans-serif;letter-spacing:0px;word-spacing:0px;fill:#000000;fill-opacity:1;stroke:none;stroke-width:1px;stroke-linecap:butt;stroke-linejoin:miter;stroke-opacity:1"
       x="38.727032"
       y="25.462669"
       id="text4161"
       sodipodi:linespacing="125%"
       transform="scale(1.0557458,0.9471977)"><tspan
         sodipodi:role="line"
         id="tspan4163"
         x="38.727032"
         y="25.462669"
         style="font-style:normal;font-variant:normal;font-weight:300;font-stretch:normal;font-family:'Helvetica Neue';-inkscape-font-specification:'Helvetica Neue Light';fill:#ffffff">Download for iOS</tspan></text>
</g></svg>