<?xml version="1.0" encoding="UTF-8" standalone="no"?>
<!-- Generator: Adobe Illustrator 16.0.0, SVG Export Plug-In . SVG Version: 6.00 Build 0)  -->

<svg
   xmlns:dc="http://purl.org/dc/elements/1.1/"
   xmlns:cc="http://creativecommons.org/ns#"
   xmlns:rdf="http://www.w3.org/1999/02/22-rdf-syntax-ns#"
   xmlns:svg="http://www.w3.org/2000/svg"
   xmlns="http://www.w3.org/2000/svg"
   xmlns:sodipodi="http://sodipodi.sourceforge.net/DTD/sodipodi-0.dtd"
   xmlns:inkscape="http://www.inkscape.org/namespaces/inkscape"
   version="1.1"
   id="Capa_1"
   x="0px"
   y="0px"
   width="311.402px"
   height="311.402px"
   viewBox="0 0 311.402 311.402"
   style="enable-background:new 0 0 311.402 311.402;"
   xml:space="preserve"
   inkscape:version="0.91 r13725"
   sodipodi:docname="car.svg"><metadata
     id="metadata19"><rdf:RDF><cc:Work
         rdf:about=""><dc:format>image/svg+xml</dc:format><dc:type
           rdf:resource="http://purl.org/dc/dcmitype/StillImage" /><dc:title></dc:title></cc:Work></rdf:RDF></metadata><defs
     id="defs17" /><sodipodi:namedview
     pagecolor="#999faa"
     bordercolor="#666666"
     borderopacity="1"
     objecttolerance="10"
     gridtolerance="10"
     guidetolerance="10"
     inkscape:pageopacity="0"
     inkscape:pageshadow="2"
     inkscape:window-width="1212"
     inkscape:window-height="682"
     id="namedview15"
     showgrid="false"
     inkscape:zoom="0.75786281"
     inkscape:cx="155.701"
     inkscape:cy="155.701"
     inkscape:window-x="0"
     inkscape:window-y="23"
     inkscape:window-maximized="0"
     inkscape:current-layer="g3" /><g
     id="g3"><path
       style="fill:#ffffff;stroke:none;stroke-width:1;stroke-miterlimit:4;stroke-dasharray:none;stroke-opacity:1;fill-opacity:1"
       d="M 153.75586,58.921875 C 113.00979,59.213787 73.971449,86.465763 59.537109,124.70117 41.833142,133.47101 20.495297,140.7801 11.314453,159.90625 2.002021,179.29281 2.0986097,201.34594 2,222.30469 c 9.944661,0 19.889323,0 29.833984,0 -0.562075,-4.04167 -0.561888,-8.15951 0,-12.20117 -5.863932,0 -11.727864,0 -17.591796,0 0.782403,-18.35221 1.116999,-39.28067 14.308593,-53.61329 11.262655,-11.28358 27.295327,-15.3715 40.796875,-23.1289 11.619928,-36.085415 47.641214,-62.42341 85.591744,-62.252267 37.98011,-0.814002 74.51943,24.985508 86.64767,60.955297 4.44203,4.77558 12.16367,6.50342 18.00615,9.85673 13.04776,5.55516 26.67999,13.68499 31.58647,27.83477 4.91354,12.82725 5.56888,26.76429 5.98242,40.34766 -6.43555,0 -12.87109,0 -19.30664,0 0.55651,4.04245 0.5598,8.15911 -0.002,12.20117 10.51627,0 21.03255,0 31.54882,0 -0.26313,-23.39698 0.30246,-49.21689 -13.5957,-69.36328 -10.7012,-14.53596 -28.4495,-20.32876 -43.92969,-28.24219 -15.07006,-39.661003 -55.7833,-67.009041 -98.12109,-65.777345 z"
       id="path5"
       inkscape:connector-curvature="0" /><path
       style="fill:#ffffff"
       d="m 126.74219,210.8418 c 0.467,3.80427 0.42848,7.66642 -0.0937,11.46289 18.79492,0 37.58984,0 56.38476,0 -0.5596,-4.04177 -0.55893,-8.15937 0,-12.20117 -18.79557,0 -37.59114,0 -56.38672,0 l 0.0957,0.73828 z"
       id="path7"
       inkscape:connector-curvature="0" /><path
       style="fill:#ffffff"
       d="m 78.404297,179.91797 c -20.023668,-0.15864 -37.569705,19.17208 -35.337891,39.24219 1.073385,20.08478 21.403112,36.29798 40.958985,33.02343 C 103.8657,250.10657 119.28765,229.1456 114.88867,209.43555 111.84536,192.25647 95.620509,179.2281 78.404297,179.91797 Z m 0.833984,12.18945 C 94.676752,191.54551 107.27238,208.35435 102.32227,223 c -3.781384,14.58332 -22.522702,22.12812 -35.265629,13.9707 -12.695902,-6.96407 -15.905559,-25.7845 -6.042969,-36.45703 4.483655,-5.27559 11.291448,-8.4525 18.224609,-8.40625 z"
       id="path9"
       inkscape:connector-curvature="0" /><path
       style="fill:#ffffff"
       d="m 229.60547,179.91797 c -20.01085,-0.14911 -37.57871,19.16753 -35.33789,39.24219 1.16356,20.12689 21.28298,36.27766 41.00195,33.01953 18.81636,-1.93987 34.40006,-21.54463 31.13672,-40.80078 -2.15575,-18.01199 -18.88835,-32.21352 -36.80078,-31.46094 z m 0.82812,12.18945 c 15.43513,-0.56147 28.03661,16.24858 23.08203,30.89063 -3.77833,14.60355 -22.55239,22.13742 -35.29687,13.95703 -12.67341,-6.98002 -15.86055,-25.77901 -6.00781,-36.44141 4.48341,-5.27766 11.28909,-8.44904 18.22265,-8.40625 z"
       id="path11"
       inkscape:connector-curvature="0" /><path
       style="fill:#ffffff"
       d="m 154.27539,88.416016 c -25.91238,0.05193 -49.76379,21.722764 -52.48047,47.429684 -0.58727,4.30596 -0.41102,8.66046 -0.43554,12.99219 36.22526,0 72.45052,0 108.67578,0 1.7763,-20.13041 -7.61113,-40.9595 -25.0625,-51.863281 -9.07057,-5.85248 -19.90788,-8.865982 -30.69727,-8.558593 z m 1.42773,12.181644 c 20.3716,-0.43083 39.02873,15.945 41.80079,36.03906 -27.86654,0 -55.73308,0 -83.59961,0 2.87991,-20.19848 21.29134,-36.3896 41.79882,-36.03906 z"
       id="path13"
       inkscape:connector-curvature="0" /></g></svg>