<?xml version="1.0" encoding="UTF-8" standalone="no"?>
<svg
   xmlns:dc="http://purl.org/dc/elements/1.1/"
   xmlns:cc="http://creativecommons.org/ns#"
   xmlns:rdf="http://www.w3.org/1999/02/22-rdf-syntax-ns#"
   xmlns:svg="http://www.w3.org/2000/svg"
   xmlns="http://www.w3.org/2000/svg"
   xmlns:sodipodi="http://sodipodi.sourceforge.net/DTD/sodipodi-0.dtd"
   xmlns:inkscape="http://www.inkscape.org/namespaces/inkscape"
   id="Layer_1"
   data-name="Layer 1"
   viewBox="0 0 111.37 60.66"
   version="1.1"
   inkscape:version="0.91 r13725"
   sodipodi:docname="cargobike.svg">
  <metadata
     id="metadata28">
    <rdf:RDF>
      <cc:Work
         rdf:about="">
        <dc:format>image/svg+xml</dc:format>
        <dc:type
           rdf:resource="http://purl.org/dc/dcmitype/StillImage" />
        <dc:title>bikes icons</dc:title>
      </cc:Work>
    </rdf:RDF>
  </metadata>
  <sodipodi:namedview
     pagecolor="#807d7d"
     bordercolor="#666666"
     borderopacity="1"
     objecttolerance="10"
     gridtolerance="10"
     guidetolerance="10"
     inkscape:pageopacity="0.5254902"
     inkscape:pageshadow="2"
     inkscape:window-width="1101"
     inkscape:window-height="613"
     id="namedview26"
     showgrid="false"
     inkscape:zoom="3.0977821"
     inkscape:cx="55.685001"
     inkscape:cy="30.33"
     inkscape:window-x="0"
     inkscape:window-y="23"
     inkscape:window-maximized="0"
     inkscape:current-layer="Layer_1" />
  <defs
     id="defs3">
    <style
       id="style5">.cls-1{fill:#1a1a1a;}</style>
  </defs>
  <title
     id="title7">bikes icons</title>
  <g
     id="Outline_Icons"
     data-name="Outline Icons">
    <path
       style="fill:#ffffff;stoke:#ffffff"
       d="M15.28,60.64A15.18,15.18,0,1,1,30.45,45.46,15.2,15.2,0,0,1,15.28,60.64Zm0-26.8A11.62,11.62,0,1,0,26.89,45.46,11.63,11.63,0,0,0,15.28,33.85Z"
       id="path10" />
    <path
       style="fill:#ffffff;stoke:#ffffff"
       class="cls-1"
       d="M26.6,26.35a1.78,1.78,0,0,1-1.59-1l-4.63-9.25a1.78,1.78,0,1,1,3.18-1.59l4.63,9.25A1.78,1.78,0,0,1,26.6,26.35Z"
       id="path12" />
    <path
       style="fill:#ffffff;stoke:#ffffff"
       class="cls-1"
       d="M28.67,17.1h-10a1.78,1.78,0,1,1,0-3.56h10A1.78,1.78,0,0,1,28.67,17.1Z"
       id="path14" />
    <path
       style="fill:#ffffff;stoke:#ffffff"
       class="cls-1"
       d="M65.52,47.24a1.74,1.74,0,0,1-.57-0.09l-3.17-1.07a1.78,1.78,0,0,1-1.15-1.23L52.07,12.42A1.88,1.88,0,0,1,52,12a5.13,5.13,0,0,1,5.13-5.13,1.57,1.57,0,1,0,0-3.14h-6.7a1.78,1.78,0,0,1,0-3.56h6.7a5.13,5.13,0,1,1,0,10.26,1.57,1.57,0,0,0-1.56,1.38L63.82,43l2.27,0.77A1.78,1.78,0,0,1,65.52,47.24Z"
       id="path16" />
    <path
       style="fill:#ffffff;stoke:#ffffff"
       d="M 69.898438 45.460938 A 12.67 12.67 0 0 0 82.380859 60.5 A 12.68 12.68 0 0 0 95 47.830078 A 12.67 12.67 0 0 0 94.763672 45.460938 L 91.164062 45.460938 A 9.12 9.12 0 0 1 91.490234 47.830078 A 9.11 9.11 0 1 1 73.585938 45.460938 L 69.898438 45.460938 z "
       id="path20" />
    <path
       style="fill:#ffffff;stoke:#ffffff"
       class="cls-1"
       d="M82.39,49.61a1.78,1.78,0,0,1-1.26-.52,1.92,1.92,0,0,1-.4-0.57,1.68,1.68,0,0,1-.12-0.69,1.78,1.78,0,0,1,.52-1.26,1.84,1.84,0,0,1,2.52,0,1.76,1.76,0,0,1,.5,1.26,1.68,1.68,0,0,1-.12.69A1.78,1.78,0,0,1,82.39,49.61Z"
       id="path22" />
  </g>
  <path
     style="fill:none;stroke:#ffffff;stroke-opacity:1;stroke-width:3.3;stroke-miterlimit:4;stroke-dasharray:none"
     d="m 62.509766,45.460938 c 15.35026,0 30.70052,0 46.050784,0 0.6595,-9.153646 1.31901,-18.307292 1.97851,-27.460938 -18.386065,0 -36.772133,0 -55.158201,0 2.376302,9.153646 4.752605,18.307292 7.128907,27.460938 z"
     id="polygon24"
     inkscape:connector-curvature="0" />
  <path
     inkscape:connector-curvature="0"
     id="path4194"
     d="m 61.541331,41.264387 c -38.337457,-19.027941 -56.7762802,-27.752826 0,0 z"
     style="fill:none;stroke:#ffffff;stroke-width:3.29999995;stroke-miterlimit:4;stroke-dasharray:none;stroke-opacity:1"
     sodipodi:nodetypes="cc" />
</svg>
