<?xml version="1.0" encoding="UTF-8" standalone="no"?>
<!-- Generator: Adobe Illustrator 15.1.0, SVG Export Plug-In . SVG Version: 6.00 Build 0)  -->

<svg
   xmlns:dc="http://purl.org/dc/elements/1.1/"
   xmlns:cc="http://creativecommons.org/ns#"
   xmlns:rdf="http://www.w3.org/1999/02/22-rdf-syntax-ns#"
   xmlns:svg="http://www.w3.org/2000/svg"
   xmlns="http://www.w3.org/2000/svg"
   xmlns:sodipodi="http://sodipodi.sourceforge.net/DTD/sodipodi-0.dtd"
   xmlns:inkscape="http://www.inkscape.org/namespaces/inkscape"
   version="1.1"
   id="Calque_1"
   x="0px"
   y="0px"
   width="96"
   height="96"
   viewBox="0 0 96 96"
   enable-background="new 0 0 400 50"
   xml:space="preserve"
   inkscape:version="0.91 r13725"
   sodipodi:docname="logo-head.svg"
   inkscape:export-filename="/Users/tcherno/togetair/urbantz/icon-1024.png"
   inkscape:export-xdpi="960"
   inkscape:export-ydpi="960"><metadata
     id="metadata69"><rdf:RDF><cc:Work
         rdf:about=""><dc:format>image/svg+xml</dc:format><dc:type
           rdf:resource="http://purl.org/dc/dcmitype/StillImage" /><dc:title></dc:title></cc:Work></rdf:RDF></metadata><defs
     id="defs67" /><sodipodi:namedview
     pagecolor="#223641"
     bordercolor="#666666"
     borderopacity="1"
     objecttolerance="10"
     gridtolerance="10"
     guidetolerance="10"
     inkscape:pageopacity="1"
     inkscape:pageshadow="2"
     inkscape:window-width="1440"
     inkscape:window-height="785"
     id="namedview65"
     showgrid="false"
     fit-margin-left="20"
     fit-margin-top="20"
     fit-margin-right="20"
     fit-margin-bottom="20"
     inkscape:zoom="4.8790368"
     inkscape:cx="15.629726"
     inkscape:cy="42.294858"
     inkscape:window-x="300"
     inkscape:window-y="156"
     inkscape:window-maximized="0"
     inkscape:current-layer="g5" /><g
     id="g5"
     transform="translate(-79.037157,-10.538999)"
     style="fill:#00bcd4;fill-opacity:1"><path
       style="fill:#00bcd4;fill-opacity:1"
       inkscape:connector-curvature="0"
       id="path11"
       d="m 132.38653,45.194826 c -7.84025,-6.172238 -18.36838,-5.995063 -25.93422,-0.298308 l -6.26909,-8.417673 c 7.01355,-6.688399 16.06573,-10.374748 25.57412,-10.394635 10.51427,-0.02531 20.66755,4.556862 27.86204,12.566851 0.32981,0.365199 0.87604,0.383279 1.2223,0.04248 0.34973,-0.3426 0.36704,-0.914808 0.0407,-1.278199 -7.52173,-8.374285 -18.13814,-13.160753 -29.12767,-13.139057 -10.21562,0.0226 -19.92396,4.088609 -27.337448,11.449556 l -0.567875,0.564976 7.244683,9.724798 c -1.20586,1.070289 -2.31996,2.28702 -3.31027,3.661039 -7.268063,10.064689 -5.346303,24.373471 4.29106,31.961311 9.6391,7.588744 48.27425,9.424683 48.27425,9.424683 0,0 -12.32177,-38.280892 -21.9626,-45.867827 z m -14.22708,28.02366 c -4.9403,-0.633676 -8.454,-5.331555 -7.84631,-10.49407 0.60855,-5.160706 5.1091,-8.82988 10.04942,-8.194396 4.94203,0.636387 8.45747,5.334267 7.84978,10.494975 -0.60856,5.159803 -5.10912,8.828976 -10.05289,8.193491 z" /></g></svg>