<?xml version="1.0" encoding="UTF-8" standalone="no"?>
<!-- Generator: Adobe Illustrator 15.1.0, SVG Export Plug-In . SVG Version: 6.00 Build 0)  -->

<svg
   xmlns:dc="http://purl.org/dc/elements/1.1/"
   xmlns:cc="http://creativecommons.org/ns#"
   xmlns:rdf="http://www.w3.org/1999/02/22-rdf-syntax-ns#"
   xmlns:svg="http://www.w3.org/2000/svg"
   xmlns="http://www.w3.org/2000/svg"
   xmlns:sodipodi="http://sodipodi.sourceforge.net/DTD/sodipodi-0.dtd"
   xmlns:inkscape="http://www.inkscape.org/namespaces/inkscape"
   version="1.1"
   id="Calque_1"
   x="0px"
   y="0px"
   width="391.01999"
   height="209.39456"
   viewBox="0 0 391.01999 209.39456"
   enable-background="new 0 0 400 50"
   xml:space="preserve"
   inkscape:version="0.91 r13725"
   sodipodi:docname="logo+name+tagline.svg"
   inkscape:export-filename="/Users/tcherno/togetair/urbantz/www2/user/themes/halcyon/img/logo-white-2.png"
   inkscape:export-xdpi="92.07"
   inkscape:export-ydpi="92.07"><metadata
     id="metadata69"><rdf:RDF><cc:Work
         rdf:about=""><dc:format>image/svg+xml</dc:format><dc:type
           rdf:resource="http://purl.org/dc/dcmitype/StillImage" /><dc:title /></cc:Work></rdf:RDF></metadata><defs
     id="defs67" /><sodipodi:namedview
     pagecolor="#ffffff"
     bordercolor="#666666"
     borderopacity="1"
     objecttolerance="10"
     gridtolerance="10"
     guidetolerance="10"
     inkscape:pageopacity="0"
     inkscape:pageshadow="2"
     inkscape:window-width="2560"
     inkscape:window-height="1314"
     id="namedview65"
     showgrid="false"
     fit-margin-left="20"
     fit-margin-top="20"
     fit-margin-right="20"
     fit-margin-bottom="20"
     inkscape:zoom="1.725"
     inkscape:cx="110.10743"
     inkscape:cy="84.543574"
     inkscape:window-x="0"
     inkscape:window-y="1"
     inkscape:window-maximized="1"
     inkscape:current-layer="Calque_1" /><g
     id="g5"
     transform="translate(102.17667,7.3430812)"
     style="fill:#ffffff;fill-opacity:1"><path
       style="fill:#ffffff;fill-opacity:1"
       inkscape:connector-curvature="0"
       id="path7"
       d="m 55.02,78.197 c -0.705,5.711 -5.902,9.768 -11.611,9.066 -5.709,-0.703 -9.77,-5.9 -9.066,-11.611 0.703,-5.709 5.9,-9.768 11.611,-9.066 5.706,0.703 9.765,5.9 9.066,11.611 z" /><path
       style="fill:#ffffff;fill-opacity:1"
       inkscape:connector-curvature="0"
       id="path9"
       d="M 91.248,64.76 C 90.152,73.666 82.041,79.996 73.135,78.903 64.231,77.807 57.897,69.698 58.992,60.79 60.09,51.884 68.201,45.553 77.105,46.648 c 8.907,1.096 15.239,9.204 14.143,18.112 z" /><path
       style="fill:#ffffff;fill-opacity:1"
       inkscape:connector-curvature="0"
       id="path11"
       d="m 139.48,35.798 c -9.057,-6.828 -21.219,-6.632 -29.959,-0.33 l -7.242,-9.312 c 8.102,-7.399 18.559,-11.477 29.543,-11.499 12.146,-0.028 23.875,5.041 32.186,13.902 0.381,0.404 1.012,0.424 1.412,0.047 0.404,-0.379 0.424,-1.012 0.047,-1.414 -8.689,-9.264 -20.953,-14.559 -33.648,-14.535 -11.801,0.025 -23.016,4.523 -31.58,12.666 l -0.656,0.625 8.369,10.758 c -1.393,1.184 -2.68,2.53 -3.824,4.05 -8.396,11.134 -6.176,26.963 4.957,35.357 11.135,8.395 55.766,10.426 55.766,10.426 0,0 -14.234,-42.348 -25.371,-50.741 z m -16.435,31.001 c -5.707,-0.701 -9.766,-5.898 -9.064,-11.609 0.703,-5.709 5.902,-9.768 11.609,-9.065 5.709,0.704 9.77,5.901 9.068,11.61 -0.703,5.708 -5.902,9.767 -11.613,9.064 z" /></g><g
     id="g13"
     transform="translate(-4.49,160.38656)"
     style="fill:#ffffff;fill-opacity:1"
     inkscape:export-filename="/Users/tcherno/togetair/urbantz/www2/user/themes/halcyon/img/g13.png"
     inkscape:export-xdpi="92.07"
     inkscape:export-ydpi="92.07"><polygon
       style="fill:#ffffff;fill-opacity:1"
       id="polygon15"
       points="27.158,28.9 27.158,21.656 24.49,21.656 24.49,21.1 30.492,21.1 30.492,21.656 27.818,21.656 27.818,28.9 " /><path
       style="fill:#ffffff;fill-opacity:1"
       inkscape:connector-curvature="0"
       id="path17"
       d="m 50.314,25.422 c 0,0.719 -0.125,1.35 -0.373,1.893 -0.248,0.543 -0.604,0.961 -1.064,1.252 -0.461,0.293 -0.992,0.441 -1.596,0.441 -0.91,0 -1.646,-0.326 -2.207,-0.979 -0.563,-0.652 -0.842,-1.531 -0.842,-2.639 l 0,-0.805 c 0,-0.711 0.127,-1.34 0.379,-1.889 0.25,-0.547 0.607,-0.969 1.068,-1.264 0.461,-0.295 0.99,-0.441 1.592,-0.441 0.6,0 1.129,0.145 1.588,0.434 0.459,0.289 0.813,0.697 1.063,1.227 0.25,0.53 0.381,1.141 0.393,1.838 l 0,0.932 z m -0.66,-0.846 c 0,-0.939 -0.211,-1.676 -0.637,-2.207 -0.426,-0.533 -1.008,-0.799 -1.746,-0.799 -0.727,0 -1.305,0.266 -1.734,0.801 -0.43,0.533 -0.645,1.279 -0.645,2.236 l 0,0.814 c 0,0.926 0.213,1.658 0.643,2.199 0.428,0.541 1.01,0.813 1.746,0.813 0.746,0 1.328,-0.268 1.746,-0.801 0.418,-0.533 0.627,-1.277 0.627,-2.232 l 0,-0.824 z" /><path
       style="fill:#ffffff;fill-opacity:1"
       inkscape:connector-curvature="0"
       id="path19"
       d="m 70.553,27.973 c -0.229,0.324 -0.586,0.578 -1.074,0.762 -0.486,0.182 -1.031,0.271 -1.637,0.271 -0.611,0 -1.154,-0.145 -1.629,-0.438 -0.475,-0.293 -0.842,-0.707 -1.104,-1.244 -0.26,-0.535 -0.393,-1.15 -0.396,-1.842 l 0,-0.986 c 0,-1.082 0.273,-1.938 0.82,-2.564 0.547,-0.626 1.279,-0.939 2.201,-0.939 0.805,0 1.451,0.205 1.939,0.613 0.49,0.408 0.781,0.973 0.875,1.689 l -0.66,0 c -0.096,-0.574 -0.33,-1.008 -0.699,-1.303 -0.369,-0.295 -0.852,-0.443 -1.449,-0.443 -0.729,0 -1.305,0.258 -1.73,0.777 -0.424,0.518 -0.637,1.25 -0.637,2.193 l 0,0.922 c 0,0.594 0.1,1.117 0.303,1.574 0.201,0.455 0.49,0.809 0.867,1.059 0.377,0.25 0.811,0.375 1.299,0.375 0.568,0 1.055,-0.088 1.463,-0.268 0.266,-0.117 0.461,-0.256 0.59,-0.412 l 0,-2.016 -2.096,0 0,-0.557 2.754,0 0,2.777 z" /><polygon
       style="fill:#ffffff;fill-opacity:1"
       id="polygon21"
       points="89.678,24.604 89.678,25.16 86.029,25.16 86.029,28.342 90.225,28.342 90.225,28.9 85.371,28.9 85.371,21.1 90.199,21.1 90.199,21.656 86.029,21.656 86.029,24.604 " /><polygon
       style="fill:#ffffff;fill-opacity:1"
       id="polygon23"
       points="106.627,28.9 106.627,21.656 103.959,21.656 103.959,21.1 109.961,21.1 109.961,21.656 107.287,21.656 107.287,28.9 " /><polygon
       style="fill:#ffffff;fill-opacity:1"
       id="polygon25"
       points="129.947,21.098 129.947,28.9 129.283,28.9 129.283,25.16 124.826,25.16 124.826,28.9 124.168,28.9 124.168,21.098 124.826,21.098 124.826,24.602 129.283,24.602 129.283,21.098 " /><polygon
       style="fill:#ffffff;fill-opacity:1"
       id="polygon27"
       points="149.186,24.604 149.186,25.16 145.537,25.16 145.537,28.342 149.732,28.342 149.732,28.9 144.879,28.9 144.879,21.1 149.705,21.1 149.705,21.656 145.537,21.656 145.537,24.604 " /><path
       style="fill:#ffffff;fill-opacity:1"
       inkscape:connector-curvature="0"
       id="path29"
       d="m 166.982,25.646 -2.268,0 0,3.254 -0.664,0 0,-7.8 2.535,0 c 0.832,0 1.482,0.201 1.949,0.604 0.469,0.404 0.703,0.967 0.703,1.691 0,0.5 -0.148,0.939 -0.439,1.322 -0.293,0.381 -0.686,0.645 -1.18,0.791 l 1.951,3.322 0,0.07 -0.703,0 -1.884,-3.254 z m -2.267,-0.556 2.021,0 c 0.553,0 0.998,-0.156 1.334,-0.473 0.336,-0.314 0.504,-0.723 0.504,-1.223 0,-0.551 -0.176,-0.979 -0.525,-1.283 -0.35,-0.303 -0.842,-0.455 -1.475,-0.455 l -1.859,0 0,3.434 z" /><polygon
       style="fill:#ffffff;fill-opacity:1"
       id="polygon31"
       points="205.533,28.898 203.764,22.797 203.566,22.025 203.373,22.797 201.563,28.898 200.93,28.898 198.938,21.1 199.611,21.1 201.037,26.795 201.279,28.006 201.572,26.848 203.266,21.1 203.861,21.1 205.533,26.848 205.822,28.016 206.08,26.795 207.488,21.1 208.162,21.1 206.164,28.898 " /><polygon
       style="fill:#ffffff;fill-opacity:1"
       id="polygon33"
       points="226.688,24.604 226.688,25.16 223.039,25.16 223.039,28.342 227.234,28.342 227.234,28.9 222.381,28.9 222.381,21.1 227.207,21.1 227.207,21.656 223.039,21.656 223.039,24.604 " /><path
       style="fill:#ffffff;fill-opacity:1"
       inkscape:connector-curvature="0"
       id="path35"
       d="m 257.186,28.9 0,-7.8 2.182,0 c 0.639,0 1.211,0.145 1.719,0.436 0.508,0.291 0.902,0.709 1.188,1.25 0.283,0.543 0.426,1.162 0.426,1.855 l 0,0.717 c 0,0.697 -0.143,1.316 -0.424,1.855 -0.283,0.539 -0.68,0.955 -1.191,1.248 -0.514,0.293 -1.102,0.439 -1.766,0.439 l -2.134,0 z m 0.658,-7.244 0,6.686 1.48,0 c 0.82,0 1.479,-0.271 1.977,-0.818 0.496,-0.543 0.744,-1.281 0.744,-2.211 l 0,-0.686 c 0,-0.898 -0.244,-1.615 -0.734,-2.156 -0.488,-0.539 -1.135,-0.813 -1.934,-0.814 l -1.533,0 z" /><polygon
       style="fill:#ffffff;fill-opacity:1"
       id="polygon37"
       points="281.625,24.604 281.625,25.16 277.977,25.16 277.977,28.342 282.172,28.342 282.172,28.9 277.318,28.9 277.318,21.1 282.146,21.1 282.146,21.656 277.977,21.656 277.977,24.604 " /><polygon
       style="fill:#ffffff;fill-opacity:1"
       id="polygon39"
       points="297.172,21.1 297.172,28.342 301.023,28.342 301.023,28.898 296.508,28.898 296.508,21.1 " /><rect
       style="fill:#ffffff;fill-opacity:1"
       id="rect41"
       height="7.803"
       width="0.65799999"
       y="21.098"
       x="315.38101" /><polygon
       style="fill:#ffffff;fill-opacity:1"
       id="polygon43"
       points="333.547,27.936 336,21.1 336.723,21.1 333.82,28.898 333.188,28.898 330.283,21.1 331.002,21.1 333.455,27.936 333.498,28.102 " /><polygon
       style="fill:#ffffff;fill-opacity:1"
       id="polygon45"
       points="355.125,24.604 355.125,25.16 351.479,25.16 351.479,28.342 355.672,28.342 355.672,28.9 350.818,28.9 350.818,21.1 355.646,21.1 355.646,21.656 351.479,21.656 351.479,24.604 " /><path
       style="fill:#ffffff;fill-opacity:1"
       inkscape:connector-curvature="0"
       id="path47"
       d="m 372.922,25.646 -2.268,0 0,3.254 -0.662,0 0,-7.8 2.533,0 c 0.832,0 1.482,0.201 1.949,0.604 0.469,0.404 0.703,0.967 0.703,1.691 0,0.5 -0.148,0.939 -0.439,1.322 -0.293,0.381 -0.686,0.645 -1.18,0.791 l 1.951,3.322 0,0.07 -0.703,0 -1.884,-3.254 z m -2.268,-0.556 2.021,0 c 0.553,0 0.998,-0.156 1.334,-0.473 0.336,-0.314 0.504,-0.723 0.504,-1.223 0,-0.551 -0.176,-0.979 -0.525,-1.283 -0.35,-0.303 -0.842,-0.455 -1.475,-0.455 l -1.859,0 0,3.434 z" /></g><g
     id="g49"
     transform="translate(-4.49,96.038733)"
     style="fill:#ffffff;fill-opacity:1"
     inkscape:export-filename="/Users/tcherno/togetair/urbantz/www2/user/themes/halcyon/img/g13.png"
     inkscape:export-xdpi="92.07"
     inkscape:export-ydpi="92.07"><path
       style="fill:#ffffff;fill-opacity:1"
       inkscape:connector-curvature="0"
       id="path51"
       d="m 24.49,30.508 1.229,0 -0.111,22.484 c 0,8.592 6.193,15.455 13.947,15.4 7.811,0 14.004,-6.752 13.949,-15.4 l 0,-22.484 1.227,0 -0.111,22.484 c 0,9.039 -6.752,16.57 -15.064,16.516 -8.256,0 -15.008,-7.422 -15.064,-16.516 l 0,-22.484 z" /><path
       style="fill:#ffffff;fill-opacity:1"
       inkscape:connector-curvature="0"
       id="path53"
       d="m 190.555,60.09 -4.15,9.418 -1.229,0 17.186,-39.016 0.781,0 17.186,39.016 -1.229,0 -4.133,-9.418 -24.412,0 z m 23.925,-1.127 -11.729,-26.559 -11.727,26.559 0.346,0 22.652,0 0.458,0 z" /><polygon
       style="fill:#ffffff;fill-opacity:1"
       id="polygon55"
       points="273.023,69.508 247.617,32.795 247.623,69.508 246.402,69.508 246.402,31.01 246.402,30.492 247.623,30.492 273.023,67.219 273.023,30.492 274.244,30.492 274.244,68.949 274.244,69.508 " /><polygon
       style="fill:#ffffff;fill-opacity:1"
       id="polygon57"
       points="310.84,31.568 310.84,69.506 309.615,69.506 309.615,31.623 295.721,31.623 295.721,30.492 324.732,30.492 324.732,31.568 " /><polygon
       style="fill:#ffffff;fill-opacity:1"
       id="polygon59"
       points="375.51,30.492 349.844,68.391 375.51,68.391 375.51,69.506 347.615,69.506 373.264,31.623 347,31.623 347,30.492 " /><path
       style="fill:#ffffff;fill-opacity:1"
       inkscape:connector-curvature="0"
       id="path61"
       d="m 94.275,50.551 c 0,0 13.713,0.559 13.713,-9.943 0,-10.156 -10.354,-10.115 -11.436,-10.115 l -15.831,0 0,39.014 1.211,0.002 0,-18.958 8.67,-0.002 16.195,18.959 1.217,0 c 0,0 -9.643,-11.822 -16.201,-18.957 l 2.462,0 z m -12.343,-1.137 0,-17.713 14.621,0 c 1.221,0 10.215,-0.342 10.215,8.887 0,9.246 -12.504,8.822 -12.504,8.822 l -12.332,0.004 z" /><path
       style="fill:#ffffff;fill-opacity:1"
       inkscape:connector-curvature="0"
       id="path63"
       d="m 154.508,49.66 c 3.516,-1.557 5.971,-5.068 5.971,-9.158 0,-5.533 -5.781,-10.01 -11.313,-10.01 l -14.174,0 0.002,39.016 17.229,0 c 0.018,0 0.035,-0.004 0.055,-0.002 5.553,0 10.01,-4.508 10.01,-10.061 -0.001,-4.769 -3.325,-8.752 -7.78,-9.785 m -3.713,0.844 c 0,-0.002 0,-0.002 0,-0.002 l 0.002,0 -0.002,0.002 z m -14.58,-18.881 12.977,0 c 5.529,0 10.012,3.986 10.012,8.898 0,4.904 -4.463,8.881 -9.975,8.898 l -13.014,-0.029 0,-17.767 z m 15.183,36.756 -15.184,0 0,-17.861 14.561,0 c 5.551,0 10.232,4.018 10.232,8.949 0.001,4.801 -4.265,8.707 -9.609,8.912" /></g></svg>