<?xml version="1.0" encoding="UTF-8" standalone="no"?>
<svg
   xmlns:dc="http://purl.org/dc/elements/1.1/"
   xmlns:cc="http://creativecommons.org/ns#"
   xmlns:rdf="http://www.w3.org/1999/02/22-rdf-syntax-ns#"
   xmlns:svg="http://www.w3.org/2000/svg"
   xmlns="http://www.w3.org/2000/svg"
   xmlns:sodipodi="http://sodipodi.sourceforge.net/DTD/sodipodi-0.dtd"
   xmlns:inkscape="http://www.inkscape.org/namespaces/inkscape"
   enable-background="new 0 0 1000 600"
   height="600"
   id="Shape_1_8_"
   overflow="visible"
   version="1.1"
   viewBox="0 0 1000 600"
   width="1000"
   xml:space="preserve"
   inkscape:version="0.91 r13725"
   sodipodi:docname="minivan.svg"><metadata
     id="metadata12"><rdf:RDF><cc:Work
         rdf:about=""><dc:format>image/svg+xml</dc:format><dc:type
           rdf:resource="http://purl.org/dc/dcmitype/StillImage" /><dc:title></dc:title></cc:Work></rdf:RDF></metadata><defs
     id="defs10" /><sodipodi:namedview
     pagecolor="#14362c"
     bordercolor="#666666"
     borderopacity="1"
     objecttolerance="10"
     gridtolerance="10"
     guidetolerance="10"
     inkscape:pageopacity="0.17254902"
     inkscape:pageshadow="2"
     inkscape:window-width="1606"
     inkscape:window-height="1129"
     id="namedview8"
     showgrid="false"
     inkscape:zoom="1.096"
     inkscape:cx="524.39773"
     inkscape:cy="489.60606"
     inkscape:window-x="20"
     inkscape:window-y="43"
     inkscape:window-maximized="0"
     inkscape:current-layer="g4" /><g
     id="Shape_1"><g
       id="g4"><path
         d="m 269.468,298.774 c -41.295,0 -74.772,33.477 -74.772,74.772 0,41.295 33.477,74.771 74.772,74.771 41.295,0 74.772,-33.477 74.772,-74.771 0,-41.295 -33.476,-74.772 -74.772,-74.772 z m 0,127.113 c -28.907,0 -52.341,-23.434 -52.341,-52.34 0,-28.907 23.434,-52.341 52.341,-52.341 28.907,0 52.34,23.434 52.34,52.341 0.001,28.906 -23.433,52.34 -52.34,52.34 z M 803.63,298.774 c -41.296,0 -74.772,33.477 -74.772,74.772 0,41.295 33.477,74.771 74.772,74.771 41.295,0 74.771,-33.477 74.771,-74.771 0,-41.295 -33.475,-74.772 -74.771,-74.772 z m 0,127.113 c -28.907,0 -52.341,-23.434 -52.341,-52.34 0,-28.907 23.434,-52.341 52.341,-52.341 28.907,0 52.341,23.434 52.341,52.341 0,28.906 -23.434,52.34 -52.341,52.34 z m 132.33,-83.249 c -3.685,-3.34 -10.235,-2.672 -14.557,-5.6 4.683,-3.686 3.359,-13 3.359,-21.274 l 0,-19.036 c -0.773,-2.065 -3.337,-1.97 -4.479,-3.359 -5.032,-6.123 -3.624,-16.58 -11.198,-20.155 -10.987,-9.517 -38.753,-10.566 -55.987,-13.438 -51.264,-8.537 -142.073,-16.462 -129.891,-15.676 -4.869,-2.131 -4.265,-6.047 -12.317,-6.719 -1.672,1.864 -0.812,1.139 -2.239,1.12 -40.816,-23.413 -72.845,-61.314 -120.933,-77.263 -17.095,-5.67 -40.464,-8.575 -61.587,-8.585 -16.94369,-4.10052 -7.07112,-18.87725 -17.64244,-49.20104 -8.42115,-24.156015 -45.97089,-70.199411 -84.11554,-68.217836 l -350.012043,0 c 0,0 2.668023,220.446876 2.751023,226.780876 -9.473,13.925 -1.372,62.622 0,78.382 -6.123,-0.244 -12.436,-0.367 -15.676,2.24 -3.257,3.118 -3.542,6.646 -3.359,13.437 -3.45,8.927 7.838,35.086 7.838,35.086 l 124.185,0.055 c -0.06,-1.255 -0.093,-2.518 -0.093,-3.788 l 0,-14.557 c 0,-43.289 35.093,-78.382 78.383,-78.382 l 2.61,0 c 43.29,0 78.382,35.093 78.382,78.382 l 0,14.557 c 0,1.294 -0.033,2.58 -0.096,3.859 l 375.972,0.167 c -0.057,-1.211 -0.088,-2.429 -0.088,-3.653 l 0,-15.303 c 0,-43.083 34.926,-78.009 78.009,-78.009 43.084,0 78.01,34.926 78.01,78.009 l 0,15.303 c 0,1.248 -0.032,2.489 -0.09,3.723 l 23.509,0.011 c 0,0 26.896,-1.645 33.593,-10.824 7.229,-8.957 2.862,-31.084 -2.241,-38.072 z m -287.775,-91.821 -152.286,0 -7.839,-79.502 c 0,0 107.916,-19.389 160.124,47.029 -6.661,6.932 10e-4,32.473 10e-4,32.473 z M 269.468,326.44 c -26.017,0 -47.106,21.09 -47.106,47.106 0,26.016 21.09,47.106 47.106,47.106 26.016,0 47.106,-21.091 47.106,-47.106 0,-26.016 -21.09,-47.106 -47.106,-47.106 z m 7.54,2.992 c 6.739,1.144 12.965,3.794 18.319,7.592 l -16.295,16.295 c -0.658,-0.312 -1.333,-0.594 -2.024,-0.842 z m 10.487,44.114 c 0,1.571 -1.273,2.845 -2.845,2.845 -1.572,0 -2.846,-1.273 -2.846,-2.845 0,-1.572 1.274,-2.846 2.846,-2.846 1.572,0 2.845,1.275 2.845,2.846 z m -18.027,-18.027 c 1.572,0 2.845,1.273 2.845,2.845 0,1.572 -1.273,2.846 -2.845,2.846 -1.571,0 -2.845,-1.274 -2.845,-2.846 0,-1.572 1.273,-2.845 2.845,-2.845 z m -36.524,-7.833 16.295,16.295 c -0.312,0.658 -0.591,1.335 -0.839,2.026 l -23.048,0 c 1.144,-6.74 3.794,-12.967 7.592,-18.321 z m 0.001,51.72 c -3.798,-5.354 -6.449,-11.581 -7.593,-18.32 l 23.046,0 c 0.248,0.691 0.53,1.366 0.842,2.024 z m 28.984,18.256 c -6.74,-1.144 -12.966,-3.795 -18.321,-7.593 l 16.295,-16.295 c 0.659,0.312 1.334,0.595 2.026,0.842 z M 251.44,373.546 c 0,-1.571 1.274,-2.846 2.845,-2.846 1.572,0 2.845,1.274 2.845,2.846 0,1.572 -1.273,2.845 -2.845,2.845 -1.571,0 -2.845,-1.274 -2.845,-2.845 z m 10.489,-21.069 c -0.692,0.248 -1.366,0.532 -2.024,0.844 L 243.61,337.025 c 5.355,-3.798 11.58,-6.449 18.319,-7.593 z m 7.539,39.096 c -1.571,0 -2.845,-1.274 -2.845,-2.846 0,-1.572 1.274,-2.845 2.845,-2.845 1.572,0 2.845,1.273 2.845,2.845 0,1.572 -1.273,2.846 -2.845,2.846 z m 0,-11.314 c -3.708,0 -6.713,-3.005 -6.713,-6.712 0,-3.708 3.005,-6.713 6.713,-6.713 3.707,0 6.712,3.005 6.712,6.713 10e-4,3.707 -3.005,6.712 -6.712,6.712 z m 7.54,37.403 0,-23.046 c 0.691,-0.247 1.365,-0.531 2.023,-0.844 l 16.295,16.296 c -5.354,3.798 -11.578,6.451 -18.318,7.594 z m 28.984,-18.255 -16.295,-16.295 c 0.312,-0.658 0.591,-1.335 0.839,-2.026 l 23.048,0 c -1.144,6.739 -3.793,12.967 -7.592,18.321 z m 7.592,-33.4 -23.047,0 c -0.248,-0.692 -0.53,-1.366 -0.842,-2.024 l 16.295,-16.296 c 3.799,5.354 6.449,11.581 7.594,18.32 z M 803.63,326.44 c -26.017,0 -47.106,21.09 -47.106,47.106 0,26.016 21.09,47.106 47.106,47.106 26.016,0 47.106,-21.091 47.106,-47.106 0,-26.016 -21.09,-47.106 -47.106,-47.106 z m 7.54,2.992 c 6.739,1.144 12.965,3.794 18.319,7.592 l -16.295,16.295 c -0.658,-0.312 -1.333,-0.594 -2.024,-0.842 z m 10.487,44.114 c 0,1.571 -1.274,2.845 -2.846,2.845 -1.572,0 -2.845,-1.273 -2.845,-2.845 0,-1.572 1.273,-2.846 2.845,-2.846 1.572,0 2.846,1.275 2.846,2.846 z M 803.63,355.519 c 1.571,0 2.845,1.273 2.845,2.845 0,1.572 -1.273,2.846 -2.845,2.846 -1.572,0 -2.846,-1.274 -2.846,-2.846 0,-1.572 1.275,-2.845 2.846,-2.845 z m -36.524,-7.833 16.295,16.295 c -0.313,0.658 -0.592,1.335 -0.839,2.026 l -23.049,0 c 1.145,-6.74 3.795,-12.967 7.593,-18.321 z m 0,51.72 c -3.798,-5.354 -6.448,-11.581 -7.593,-18.32 l 23.047,0 c 0.247,0.691 0.53,1.366 0.842,2.024 z m 28.984,18.256 c -6.739,-1.144 -12.965,-3.795 -18.32,-7.593 l 16.295,-16.295 c 0.659,0.312 1.334,0.595 2.025,0.842 z m -10.487,-44.116 c 0,-1.571 1.273,-2.846 2.845,-2.846 1.572,0 2.846,1.274 2.846,2.846 0,1.572 -1.274,2.845 -2.846,2.845 -1.572,0 -2.845,-1.274 -2.845,-2.845 z m 10.487,-21.069 c -0.691,0.248 -1.365,0.532 -2.023,0.844 l -16.295,-16.296 c 5.354,-3.798 11.58,-6.449 18.318,-7.593 z m 7.54,39.096 c -1.571,0 -2.846,-1.274 -2.846,-2.846 0,-1.572 1.274,-2.845 2.846,-2.845 1.572,0 2.845,1.273 2.845,2.845 0,1.572 -1.274,2.846 -2.845,2.846 z m 0,-11.314 c -3.707,0 -6.713,-3.005 -6.713,-6.712 0,-3.708 3.006,-6.713 6.713,-6.713 3.707,0 6.713,3.005 6.713,6.713 0,3.707 -3.006,6.712 -6.713,6.712 z m 7.54,37.403 0,-23.046 c 0.691,-0.247 1.365,-0.531 2.023,-0.844 l 16.296,16.296 c -5.355,3.798 -11.58,6.451 -18.319,7.594 z m 28.983,-18.255 -16.294,-16.295 c 0.312,-0.658 0.591,-1.335 0.839,-2.026 l 23.048,0 c -1.144,6.739 -3.793,12.967 -7.593,18.321 z m 7.592,-33.4 -23.046,0 c -0.248,-0.692 -0.53,-1.366 -0.842,-2.024 l 16.295,-16.296 c 3.799,5.354 6.45,11.581 7.593,18.32 z"
         id="path6"
         inkscape:connector-curvature="0"
         style="fill:#ffffff"
         sodipodi:nodetypes="sssssssscsssssssssssccscccccccccsccccccccssssssccssssscccccccccssssscccccsssssssssscccccccccccccccssssscccccsssssssscscccccccccccccccssssscccccsssssssssscccccccccccccccssssscccccssssssssssccccccccccccccc" /></g></g></svg>