<?xml version="1.0" encoding="utf-8"?>
<!-- Svg Vector Icons : http://www.onlinewebfonts.com/icon -->
<!DOCTYPE svg PUBLIC "-//W3C//DTD SVG 1.1//EN" "http://www.w3.org/Graphics/SVG/1.1/DTD/svg11.dtd">
<svg version="1.1" xmlns="http://www.w3.org/2000/svg" xmlns:xlink="http://www.w3.org/1999/xlink" x="0px" y="0px" viewBox="0 0 1000 1000" enable-background="new 0 0 1000 1000" xml:space="preserve">
<metadata> Svg Vector Icons : http://www.onlinewebfonts.com/icon </metadata>
<g>
    <path  style="fill:#ffffff;stoke:#ffffff" d="M972.2,685.1h-70.9c-4.2,51.2-46.7,91.6-99,91.6c-52.2,0-94.7-40.5-98.9-91.6H310.2c-4.2,51.2-46.7,91.6-99,91.6c-52.2,0-94.7-40.5-98.9-91.6H27.8c-9.8,0-17.8-8-17.8-17.8V543.8c0-9.8,8-17.8,17.8-17.8h587.9l0.2-285l35.6-0.8l225.2,0.1l1,0.8c0.1,0,0.2-0.1,0.3-0.1c16.2,0,29.7,10.9,34.1,25.6l0.6,0.5l72.4,185.6l1.2,5.5c0.9,2.7,1.4,5.5,1.8,8.4l1.8,8.1v192.6C990,677.1,982,685.1,972.2,685.1z M211.2,741.1c35.4,0,64.2-28.8,64.2-64.1c0-35.4-28.8-64.2-64.2-64.2c-35.4,0-64.1,28.8-64.1,64.2C147.1,712.3,175.9,741.1,211.2,741.1z M615.9,580.3v-8.9v-9.8H45.6v87.9h70.2c12-41.6,50-72.3,95.4-72.3c45.4,0,83.4,30.7,95.4,72.3h309.3L615.9,580.3L615.9,580.3z M802.4,741.1c35.4,0,64.2-28.8,64.2-64.1c0-35.4-28.8-64.2-64.2-64.2c-35.4,0-64.1,28.8-64.1,64.2C738.2,712.3,767,741.1,802.4,741.1z M954.4,470.9l-77.2-195l-225.6-0.1v373.6H707c12-41.6,50-72.3,95.4-72.3c45.4,0,83.4,30.7,95.4,72.3h56.6V470.9z M686.8,313.2h170l49.3,142.3H686.8V313.2z M722.6,419h137.5l-27.3-70.7H722.6V419z M562.1,507.2H295c-9.8,0-17.8-8-17.8-17.8V240.6c0.6-13,16.1-17.3,16.1-17.3l268.9-0.1c0,0,17.1,4.6,17.7,17.3v248.8C579.9,499.3,571.9,507.2,562.1,507.2z M544.7,259H313.1v213.7h231.6V259z M241.5,507.2h-178c-9.8,0-17.8-8-17.8-17.8V364.8c1.3-14.3,18-16.6,18-16.6l178.6,0c0,0,15.8,1.4,17.1,16.7v124.6C259.3,499.3,251.3,507.2,241.5,507.2z M224.1,384.3H81.4v88.4h142.7V384.3z"/>
</g>
</svg>