<?xml version="1.0" encoding="UTF-8" standalone="no"?>
<!-- Svg Vector Icons : http://www.onlinewebfonts.com/icon -->

<svg
   xmlns:dc="http://purl.org/dc/elements/1.1/"
   xmlns:cc="http://creativecommons.org/ns#"
   xmlns:rdf="http://www.w3.org/1999/02/22-rdf-syntax-ns#"
   xmlns:svg="http://www.w3.org/2000/svg"
   xmlns="http://www.w3.org/2000/svg"
   xmlns:sodipodi="http://sodipodi.sourceforge.net/DTD/sodipodi-0.dtd"
   xmlns:inkscape="http://www.inkscape.org/namespaces/inkscape"
   version="1.1"
   x="0px"
   y="0px"
   viewBox="0 0 1000 1000"
   enable-background="new 0 0 1000 1000"
   xml:space="preserve"
   id="svg2"
   inkscape:version="0.91 r13725"
   sodipodi:docname="van.svg"><defs
     id="defs14" /><sodipodi:namedview
     pagecolor="#908c84"
     bordercolor="#666666"
     borderopacity="1"
     objecttolerance="10"
     gridtolerance="10"
     guidetolerance="10"
     inkscape:pageopacity="0.5254902"
     inkscape:pageshadow="2"
     inkscape:window-width="1289"
     inkscape:window-height="765"
     id="namedview12"
     showgrid="false"
     inkscape:zoom="0.594"
     inkscape:cx="500"
     inkscape:cy="500"
     inkscape:window-x="0"
     inkscape:window-y="23"
     inkscape:window-maximized="0"
     inkscape:current-layer="g6" /><metadata
     id="metadata4"> Svg Vector Icons : http://www.onlinewebfonts.com/icon <rdf:RDF><cc:Work
     rdf:about=""><dc:format>image/svg+xml</dc:format><dc:type
       rdf:resource="http://purl.org/dc/dcmitype/StillImage" /><dc:title></dc:title></cc:Work></rdf:RDF></metadata><g
     id="g6"><path
       style="fill:#ffffff"
       d="m 540.11328,564.38281 c -7.77392,0.27681 -15.76787,-0.11091 -23.14453,1.78321 -2.66122,3.59476 0.64916,8.97566 5.03516,7.60937 19.24995,0.51904 38.51047,-0.52435 57.75976,0.46484 5.11078,-0.46808 11.86658,0.38697 15.91406,-2.92578 1.54183,-4.14788 -2.5973,-8.03039 -6.66601,-6.85351 -16.29616,0.62705 -32.58875,0.0926 -48.89844,-0.0781 z"
       id="path8"
       inkscape:connector-curvature="0" /><path
       style="fill:#ffffff"
       d="m 699.0332,196.22266 c -206.49116,0.80968 -413.00984,-0.76481 -619.484372,0.81054 -29.330224,3.55798 -53.797767,28.52423 -58.289062,57.49805 -7.157912,33.21407 -1.258398,67.25947 -2.882388,100.8378 0.667159,84.65632 -1.199423,169.37236 1.254624,253.99026 5.845124,34.53286 36.157794,61.64549 70.02477,67.80268 17.066688,4.1625 34.775878,4.60271 52.253388,4.05676 -5.6757,56.74678 38.65509,113.76696 95.35108,121.38816 49.34731,8.03443 102.94448,-20.22547 121.70431,-67.09216 7.9932,-18.34864 11.16938,-38.82272 8.79422,-58.71397 90.24609,0 180.49218,0 270.73828,0 -7.26309,58.43986 38.30214,117.9465 96.76953,125.74805 50.58591,8.37863 105.49407,-21.10039 124.31138,-69.18582 6.86706,-16.14823 10.04026,-33.87425 9.06362,-51.40207 26.08503,-2.43941 54.18003,5.02139 78.65625,-7.35938 23.99248,-13.01693 34.80822,-41.80385 34.46153,-67.93745 -0.44259,-42.83383 0.76383,-85.70881 -0.58263,-128.51763 -2.84941,-32.34654 -17.99326,-62.49942 -39.00197,-86.87381 -33.26738,-40.93796 -66.43691,-81.97391 -100.63279,-122.14376 -12.64933,-14.14626 -24.83608,-28.93354 -39.07031,-41.4961 -29.50923,-22.0553 -66.92081,-31.85138 -103.43946,-31.41015 z m 13.03125,32.25976 c 36.87121,1.50404 73.89797,20.19772 94.57374,51.44854 43.68323,52.59623 89.85226,103.4504 128.29931,160.00263 2.83419,5.54182 5.29037,11.26456 7.75977,16.97461 -77.39909,-0.0358 -154.79818,-0.0716 -232.19727,-0.10742 0.0369,-76.12499 -0.0817,-152.25008 0.0684,-228.375 l 0.99928,0.0378 0.49681,0.0188 z m -510.68554,0.16016 c 73.67579,0.0774 147.3516,0.14669 221.02734,0.26953 -0.0723,75.96288 0.15179,151.92636 -0.23828,227.88867 -122.33919,0 -244.67839,0 -367.017579,0 0.472624,-65.57999 -2.806254,-131.27586 0.224609,-196.77344 4.703591,-20.31136 26.228783,-34.29598 46.69522,-30.98443 33.10106,-0.50871 66.20929,0.2926 99.30869,-0.40033 z m 491.11328,0.25781 c 0.13867,120.38607 0.27734,240.77214 0.41601,361.1582 -24.59901,15.3227 -43.19904,40.07051 -50.86132,68.04102 -67.81836,0 -135.63672,0 -203.45508,0 0.13867,-143.06641 0.27734,-286.13281 0.41601,-429.19922 84.49479,0 168.98959,0 253.48438,0 z m 255.25976,249.58594 c -0.56058,50.12852 1.47113,100.40625 -1.14257,150.42969 -6.72344,15.88053 -25.69262,23.13034 -41.89052,20.06943 -14.23099,-0.24855 -28.46369,0.0194 -42.69542,0.0165 -18.58238,-55.01512 -83.94396,-89.21592 -139.60742,-71.83984 -4.2547,1.18687 -8.45304,2.56701 -12.61524,4.04297 0,-36.20182 0,-72.40365 0,-108.60547 79.33724,-0.0332 158.67448,-0.0664 238.01172,-0.0996 -0.0202,1.99544 -0.0404,3.99089 -0.0606,5.98633 z m -525.55273,-4.88672 c 0,61.5 0,123 0,184.5 -19.4056,0 -38.8112,0 -58.2168,0 -15.23393,-55.48085 -78.29198,-93.12867 -134.25596,-78.35858 -34.82554,7.96185 -64.88408,33.46075 -79.03505,66.10663 -8.47146,5.88174 -19.25543,1.21171 -28.67774,3.17187 -19.87064,0.60191 -42.455989,-0.90846 -56.986326,-16.00781 -13.641698,-15.57853 -13.032082,-37.56873 -12.338603,-56.84179 -0.125083,-34.19005 0.151115,-68.38033 -0.01101,-102.57032 123.173826,0 246.347656,0 369.521486,0 z m 333.41406,133.25 c 44.03896,0.084 83.55842,42.70591 79.29102,87.02344 -2.62986,42.06106 -42.19986,79.17345 -84.86524,75.76367 -38.26463,-1.37517 -73.97948,-32.81996 -77.32617,-71.58984 -4.49691,-35.40811 16.89813,-73.19396 50.97461,-85.34766 10.17591,-4.06334 21.12749,-5.97151 31.92578,-5.84961 z m -497.94922,4.00977 c 44.89951,0.36184 83.86215,45.42391 76.42578,90.0332 -5.42684,38.68579 -42.01497,71.49743 -81.69531,68.85937 -38.46074,-1.24333 -74.31444,-33.55559 -76.27539,-72.60351 -3.25978,-34.84566 19.29474,-71.53139 53.57962,-81.91255 8.97734,-3.0946 18.48088,-4.48273 27.9653,-4.37651 z"
       id="path10"
       inkscape:connector-curvature="0" /></g></svg>